# xmcd CD database file
#
# Track frame offsets:
#	150
#	35207
#	54595
#	77162
#	109235
#	134392
#	150235
#	182222
#	208925
#	225280
#
# Disc length: 3428 seconds
#
# Revision: 0
# Processed by: cddbd v1.5.2PL0 Copyright (c) Steve Scherf et al.
# Submitted via: CDex 1.51
#
DISCID=840d620a
DTITLE=Kris Adams - Weaver Of Dreams
DYEAR=2002
DGENRE=Jazz
TTITLE0=Watch What Happens
TTITLE1='Sno Peas
TTITLE2=Living Room
TTITLE3=The Peacocks
TTITLE4=It Could Happen To You
TTITLE5=The More I See You
TTITLE6=Ladies In Mercedes
TTITLE7=Falling In Love
TTITLE8=Weaver Of Dreams
TTITLE9=The 'In' Crowd
EXTD=YEAR: 2002
EXTT0=
EXTT1=
EXTT2=
EXTT3=
EXTT4=
EXTT5=
EXTT6=
EXTT7=
EXTT8=
EXTT9=
PLAYORDER=
